<?xml version="1.0" encoding="UTF-8"?>
<svg id="_图层_1" data-name="图层_1" xmlns="http://www.w3.org/2000/svg" version="1.1" viewBox="0 0 128 128">
  <!-- Generator: Adobe Illustrator 29.2.1, SVG Export Plug-In . SVG Version: 2.1.0 Build 116)  -->
  <path d="M64,10.7c-2.7,0-5.3,1-7.5,3.1L13.8,56.5c-4.2,4.2-4.2,10.9,0,15l42.7,42.7c4.2,4.2,10.9,4.2,15,0l42.7-42.7c4.2-4.2,4.2-10.9,0-15L71.5,13.8c-2.2-2.1-4.9-3.1-7.5-3.1M64,33.3h0c2.4,0,4.3,1.9,4.3,4.3v36.3c0,2.4-1.9,4.3-4.3,4.3h0c-2.4,0-4.3-1.9-4.3-4.3v-36.3c0-2.4,1.9-4.3,4.3-4.3ZM64,85h0c2.9,0,5.3,2.4,5.3,5.3h0c0,2.9-2.4,5.3-5.3,5.3h0c-2.9,0-5.3-2.4-5.3-5.3h0c0-2.9,2.4-5.3,5.3-5.3Z"/>
  <path d="M153,50.8"/>
</svg>