<?xml version="1.0" encoding="UTF-8"?>
<svg id="_图层_1" xmlns="http://www.w3.org/2000/svg" version="1.1" viewBox="0 0 1000 1000">
  <!-- Generator: Adobe Illustrator 29.2.1, SVG Export Plug-In . SVG Version: 2.1.0 Build 116)  -->
  <defs>
    <style>
      .st0, .st1 {
        fill: #4d4d4d;
      }

      .st2 {
        fill: none;
      }

      .st1 {
        isolation: isolate;
      }

      .st1, .st3 {
        opacity: .9;
      }
    </style>
  </defs>
  <rect class="st2" width="1000" height="1000"/>
  <g class="st3">
    <rect class="st0" x="337.2" y="337.2" width="325.6" height="325.6" transform="translate(-207.1 500) rotate(-45)"/>
  </g>
  <polygon class="st1" points="500 178.4 636 314.4 695.9 254.4 500 58.5 304.1 254.4 364 314.4 500 178.4"/>
  <polygon class="st1" points="821.6 500 685.6 636 745.6 695.9 941.5 500 745.6 304.1 685.6 364 821.6 500"/>
  <polygon class="st1" points="500 821.6 364 685.6 304.1 745.6 500 941.5 695.9 745.6 636 685.6 500 821.6"/>
  <polygon class="st1" points="178.4 500 314.4 364 254.4 304.1 58.5 500 254.4 695.9 314.4 636 178.4 500"/>
</svg>